<svg width="211" height="33" viewBox="0 0 211 33" fill="none" xmlns="http://www.w3.org/2000/svg">
<path d="M8.424 31.16C7.63467 31.16 7.06933 30.9893 6.728 30.648C6.38667 30.2853 6.216 29.6133 6.216 28.632C6.216 27.9707 6.28 27.128 6.408 26.104C6.55733 25.0587 6.792 23.6293 7.112 21.816C7.66667 18.4667 8.104 15.5653 8.424 13.112C8.616 11.576 8.712 10.296 8.712 9.272C8.712 8.312 8.36 7.832 7.656 7.832C7.10133 7.832 6.42933 8.12 5.64 8.696C4.872 9.25067 4.01867 10.1467 3.08 11.384C2.78133 11.7893 2.45067 11.992 2.088 11.992C1.78933 11.992 1.52267 11.8533 1.288 11.576C1.07467 11.2773 0.968 10.9467 0.968 10.584C0.968 10.2427 1.032 9.90133 1.16 9.56C1.30933 9.19733 1.544 8.792 1.864 8.344C2.888 6.91467 4.02933 5.816 5.288 5.048C6.54667 4.25867 7.80533 3.864 9.064 3.864C10.2373 3.864 11.1333 4.23733 11.752 4.984C12.392 5.73067 12.712 6.81867 12.712 8.248C12.712 8.824 12.6587 9.50667 12.552 10.296C12.4453 11.064 12.3493 11.6933 12.264 12.184C12.1787 12.6747 12.1147 13.016 12.072 13.208C13.288 9.73067 14.6533 7.30933 16.168 5.944C17.6827 4.55733 19.3467 3.864 21.16 3.864C22.5467 3.864 23.6347 4.35467 24.424 5.336C25.2347 6.31733 25.64 7.704 25.64 9.496C25.64 10.2 25.544 11.0747 25.352 12.12C26.4187 9.176 27.6667 7.064 29.096 5.784C30.5253 4.504 32.168 3.864 34.024 3.864C35.5173 3.864 36.6587 4.344 37.448 5.304C38.2587 6.264 38.664 7.608 38.664 9.336C38.664 10.2747 38.5253 11.416 38.248 12.76L36.296 21.912C36.0827 22.9787 35.976 23.896 35.976 24.664C35.976 25.56 36.1787 26.232 36.584 26.68C37.0107 27.128 37.5973 27.352 38.344 27.352C39.048 27.352 39.7307 27.1173 40.392 26.648C41.0747 26.1787 41.8747 25.4 42.792 24.312C43.048 24.0133 43.336 23.864 43.656 23.864C43.9333 23.864 44.1467 23.992 44.296 24.248C44.4667 24.504 44.552 24.856 44.552 25.304C44.552 26.136 44.3493 26.7973 43.944 27.288C42.8347 28.632 41.736 29.6133 40.648 30.232C39.56 30.8507 38.4187 31.16 37.224 31.16C35.4107 31.16 33.992 30.6267 32.968 29.56C31.944 28.472 31.432 27.0213 31.432 25.208C31.432 23.9493 31.688 22.1253 32.2 19.736L33.48 13.88C33.5227 13.688 33.5973 13.3467 33.704 12.856C33.8107 12.3653 33.896 11.9067 33.96 11.48C34.024 11.032 34.056 10.5947 34.056 10.168C34.056 9.42133 33.9067 8.86667 33.608 8.504C33.3307 8.12 32.9253 7.928 32.392 7.928C31.3893 7.928 30.3333 8.57867 29.224 9.88C28.136 11.16 27.0907 13.2933 26.088 16.28C25.1067 19.2667 24.3067 23.1493 23.688 27.928C23.5387 29.208 23.272 30.072 22.888 30.52C22.5253 30.9467 21.928 31.16 21.096 31.16C20.3707 31.16 19.8373 30.9893 19.496 30.648C19.176 30.3067 19.016 29.6667 19.016 28.728C19.016 27.8533 19.1333 26.712 19.368 25.304C19.6027 23.8747 19.9013 22.2 20.264 20.28C21.2453 15.1173 21.736 11.7893 21.736 10.296C21.736 9.48533 21.576 8.888 21.256 8.504C20.9573 8.12 20.4987 7.928 19.88 7.928C18.8347 7.928 17.7573 8.52533 16.648 9.72C15.5387 10.8933 14.4507 12.9947 13.384 16.024C12.3387 19.032 11.464 23.1067 10.76 28.248C10.6107 29.336 10.3867 30.0933 10.088 30.52C9.81067 30.9467 9.256 31.16 8.424 31.16ZM45.2375 31.16C44.2775 31.16 43.4882 30.7227 42.8695 29.848C42.2722 28.952 41.9735 27.8427 41.9735 26.52C41.9735 24.92 42.0802 23.4587 42.2935 22.136C42.5068 20.792 42.8588 19.3733 43.3495 17.88C43.5628 17.24 43.8615 16.7813 44.2455 16.504C44.6295 16.2267 45.2375 16.088 46.0695 16.088C46.5388 16.088 46.8588 16.1627 47.0295 16.312C47.2215 16.4613 47.3175 16.6853 47.3175 16.984C47.3175 17.1547 47.2002 17.7307 46.9655 18.712C46.7522 19.5013 46.5815 20.216 46.4535 20.856C46.0268 23.096 45.8135 24.5893 45.8135 25.336C45.8135 25.784 45.8668 26.104 45.9735 26.296C46.0802 26.4667 46.2508 26.552 46.4855 26.552C46.8055 26.552 47.2002 26.232 47.6695 25.592C48.1602 24.952 48.6722 23.9813 49.2055 22.68C49.7602 21.3787 50.2935 19.7787 50.8055 17.88C50.9762 17.24 51.2322 16.7813 51.5735 16.504C51.9362 16.2267 52.4695 16.088 53.1735 16.088C53.6642 16.088 54.0055 16.152 54.1975 16.28C54.3895 16.3867 54.4855 16.6 54.4855 16.92C54.4855 17.4533 54.2188 18.9147 53.6855 21.304C53.0882 24.0347 52.7895 25.72 52.7895 26.36C52.7895 26.7653 52.8748 27.0853 53.0455 27.32C53.2162 27.5333 53.4402 27.64 53.7175 27.64C54.1442 27.64 54.6455 27.384 55.2215 26.872C55.8188 26.3387 56.6082 25.4853 57.5895 24.312C57.8455 24.0133 58.1335 23.864 58.4535 23.864C58.7308 23.864 58.9442 23.992 59.0935 24.248C59.2642 24.504 59.3495 24.856 59.3495 25.304C59.3495 26.1573 59.1468 26.8187 58.7415 27.288C57.8242 28.4187 56.8322 29.3467 55.7655 30.072C54.7202 30.7973 53.5255 31.16 52.1815 31.16C51.1575 31.16 50.4002 30.7653 49.9095 29.976C49.4402 29.1867 49.2055 28.0773 49.2055 26.648C48.8428 28.0987 48.2988 29.2187 47.5735 30.008C46.8482 30.776 46.0695 31.16 45.2375 31.16ZM62.7068 31.864C61.5974 31.864 60.7441 31.608 60.1468 31.096C59.5708 30.584 59.2828 30.008 59.2828 29.368C59.2828 28.8133 59.4854 28.3333 59.8908 27.928C60.2961 27.5227 60.8934 27.32 61.6828 27.32C61.9601 27.32 62.2801 27.352 62.6428 27.416C63.0268 27.4587 63.3148 27.4907 63.5068 27.512C63.4854 26.9573 63.3574 26.4347 63.1228 25.944C62.9094 25.4533 62.6321 24.984 62.2908 24.536C61.9494 24.0667 61.6294 23.6613 61.3308 23.32C60.6694 24.5787 60.0081 25.624 59.3468 26.456C58.7068 27.288 58.0028 28.0773 57.2348 28.824C56.8508 29.208 56.4454 29.4 56.0188 29.4C55.6774 29.4 55.4001 29.2827 55.1867 29.048C54.9734 28.792 54.8667 28.4827 54.8667 28.12C54.8667 27.6933 55.0161 27.2987 55.3148 26.936L55.7308 26.424C56.9041 24.9733 57.7894 23.7787 58.3868 22.84C58.7494 22.2213 59.1761 21.4 59.6668 20.376C60.1574 19.3307 60.6374 18.2533 61.1068 17.144C61.5121 16.2053 62.3548 15.736 63.6348 15.736C64.2321 15.736 64.6481 15.7893 64.8828 15.896C65.1174 16.0027 65.2348 16.1733 65.2348 16.408C65.2348 16.536 65.1921 16.7387 65.1068 17.016C65.0214 17.2933 64.9041 17.5707 64.7548 17.848C64.3708 18.616 64.1788 19.2667 64.1788 19.8C64.1788 20.12 64.2854 20.472 64.4988 20.856C64.7334 21.24 65.0854 21.72 65.5548 22.296C66.2374 23.192 66.7494 23.96 67.0908 24.6C67.4534 25.2187 67.6348 25.9013 67.6348 26.648C67.6348 26.8613 67.6134 27.16 67.5708 27.544C68.6161 27.1387 69.8428 26.0613 71.2508 24.312C71.5068 24.0133 71.7948 23.864 72.1147 23.864C72.3921 23.864 72.6054 23.992 72.7548 24.248C72.9254 24.504 73.0108 24.856 73.0108 25.304C73.0108 26.1147 72.8081 26.776 72.4028 27.288C71.3361 28.6107 70.3121 29.5173 69.3308 30.008C68.3708 30.4773 67.1761 30.7333 65.7468 30.776C64.8934 31.5013 63.8801 31.864 62.7068 31.864ZM74.603 13.976C73.707 13.976 73.035 13.7733 72.587 13.368C72.139 12.9413 71.915 12.3547 71.915 11.608C71.915 10.8613 72.203 10.2427 72.779 9.752C73.3763 9.24 74.1123 8.984 74.987 8.984C75.7763 8.984 76.4163 9.176 76.907 9.56C77.3977 9.944 77.643 10.488 77.643 11.192C77.643 12.0453 77.3657 12.728 76.811 13.24C76.2563 13.7307 75.5203 13.976 74.603 13.976ZM74.347 31.16C72.9603 31.16 71.947 30.6693 71.307 29.688C70.6883 28.7067 70.379 27.4053 70.379 25.784C70.379 24.824 70.4963 23.5973 70.731 22.104C70.987 20.5893 71.307 19.1813 71.691 17.88C71.883 17.1973 72.139 16.728 72.459 16.472C72.779 16.216 73.291 16.088 73.995 16.088C75.083 16.088 75.627 16.4507 75.627 17.176C75.627 17.7093 75.4243 18.9467 75.019 20.888C74.507 23.2347 74.251 24.824 74.251 25.656C74.251 26.296 74.3363 26.7867 74.507 27.128C74.6777 27.4693 74.9657 27.64 75.371 27.64C75.755 27.64 76.235 27.3733 76.811 26.84C77.387 26.3067 78.155 25.464 79.115 24.312C79.371 24.0133 79.659 23.864 79.979 23.864C80.2563 23.864 80.4697 23.992 80.619 24.248C80.7897 24.504 80.875 24.856 80.875 25.304C80.875 26.1573 80.6723 26.8187 80.267 27.288C78.155 29.8693 76.1817 31.16 74.347 31.16ZM84.238 31.16C82.2113 31.16 80.622 30.5733 79.47 29.4C78.3393 28.2053 77.774 26.6373 77.774 24.696C77.774 22.968 78.1153 21.4533 78.798 20.152C79.4807 18.8507 80.366 17.848 81.454 17.144C82.542 16.44 83.6833 16.088 84.878 16.088C86.0513 16.088 86.958 16.44 87.598 17.144C88.2593 17.8267 88.59 18.712 88.59 19.8C88.59 20.696 88.3873 21.4533 87.982 22.072C87.598 22.6907 87.086 23 86.446 23C86.0407 23 85.71 22.904 85.454 22.712C85.2193 22.52 85.102 22.2533 85.102 21.912C85.102 21.7627 85.1233 21.592 85.166 21.4C85.2087 21.208 85.2407 21.0693 85.262 20.984C85.3687 20.664 85.422 20.3653 85.422 20.088C85.422 19.8107 85.3473 19.5973 85.198 19.448C85.07 19.2987 84.878 19.224 84.622 19.224C84.1313 19.224 83.6727 19.448 83.246 19.896C82.8193 20.3227 82.478 20.9093 82.222 21.656C81.966 22.4027 81.838 23.224 81.838 24.12C81.838 25.336 82.0833 26.264 82.574 26.904C83.086 27.5227 83.8007 27.832 84.718 27.832C85.4433 27.832 86.1047 27.6187 86.702 27.192C87.3207 26.7653 87.9287 26.136 88.526 25.304C88.782 24.984 89.07 24.824 89.39 24.824C89.6673 24.824 89.8807 24.952 90.03 25.208C90.2007 25.464 90.286 25.816 90.286 26.264C90.286 27.032 90.1047 27.6933 89.742 28.248C89.166 29.144 88.4087 29.8587 87.47 30.392C86.5313 30.904 85.454 31.16 84.238 31.16ZM105.58 31.16C104.791 31.16 104.226 30.9893 103.884 30.648C103.543 30.2853 103.372 29.6133 103.372 28.632C103.372 27.9707 103.436 27.128 103.564 26.104C103.714 25.0587 103.948 23.6293 104.268 21.816C104.823 18.4667 105.26 15.5653 105.58 13.112C105.772 11.576 105.868 10.296 105.868 9.272C105.868 8.312 105.516 7.832 104.812 7.832C104.258 7.832 103.586 8.12 102.796 8.696C102.028 9.25067 101.175 10.1467 100.236 11.384C99.9376 11.7893 99.6069 11.992 99.2443 11.992C98.9456 11.992 98.6789 11.8533 98.4443 11.576C98.2309 11.2773 98.1242 10.9467 98.1242 10.584C98.1242 10.2427 98.1883 9.90133 98.3163 9.56C98.4656 9.19733 98.7003 8.792 99.0203 8.344C100.044 6.91467 101.186 5.816 102.444 5.048C103.703 4.25867 104.962 3.864 106.22 3.864C107.394 3.864 108.29 4.23733 108.908 4.984C109.548 5.73067 109.868 6.81867 109.868 8.248C109.868 8.824 109.815 9.50667 109.708 10.296C109.602 11.064 109.506 11.6933 109.42 12.184C109.335 12.6747 109.271 13.016 109.228 13.208C110.444 9.73067 111.81 7.30933 113.324 5.944C114.839 4.55733 116.503 3.864 118.316 3.864C119.703 3.864 120.791 4.35467 121.58 5.336C122.391 6.31733 122.796 7.704 122.796 9.496C122.796 10.2 122.7 11.0747 122.508 12.12C123.575 9.176 124.823 7.064 126.252 5.784C127.682 4.504 129.324 3.864 131.18 3.864C132.674 3.864 133.815 4.344 134.604 5.304C135.415 6.264 135.82 7.608 135.82 9.336C135.82 10.2747 135.682 11.416 135.404 12.76L133.452 21.912C133.239 22.9787 133.132 23.896 133.132 24.664C133.132 25.56 133.335 26.232 133.74 26.68C134.167 27.128 134.754 27.352 135.5 27.352C136.204 27.352 136.887 27.1173 137.548 26.648C138.231 26.1787 139.031 25.4 139.948 24.312C140.204 24.0133 140.492 23.864 140.812 23.864C141.09 23.864 141.303 23.992 141.452 24.248C141.623 24.504 141.708 24.856 141.708 25.304C141.708 26.136 141.506 26.7973 141.1 27.288C139.991 28.632 138.892 29.6133 137.804 30.232C136.716 30.8507 135.575 31.16 134.38 31.16C132.567 31.16 131.148 30.6267 130.124 29.56C129.1 28.472 128.588 27.0213 128.588 25.208C128.588 23.9493 128.844 22.1253 129.356 19.736L130.636 13.88C130.679 13.688 130.754 13.3467 130.86 12.856C130.967 12.3653 131.052 11.9067 131.116 11.48C131.18 11.032 131.212 10.5947 131.212 10.168C131.212 9.42133 131.063 8.86667 130.764 8.504C130.487 8.12 130.082 7.928 129.548 7.928C128.546 7.928 127.49 8.57867 126.38 9.88C125.292 11.16 124.247 13.2933 123.244 16.28C122.263 19.2667 121.463 23.1493 120.844 27.928C120.695 29.208 120.428 30.072 120.044 30.52C119.682 30.9467 119.084 31.16 118.252 31.16C117.527 31.16 116.994 30.9893 116.652 30.648C116.332 30.3067 116.172 29.6667 116.172 28.728C116.172 27.8533 116.29 26.712 116.524 25.304C116.759 23.8747 117.058 22.2 117.42 20.28C118.402 15.1173 118.892 11.7893 118.892 10.296C118.892 9.48533 118.732 8.888 118.412 8.504C118.114 8.12 117.655 7.928 117.036 7.928C115.991 7.928 114.914 8.52533 113.804 9.72C112.695 10.8933 111.607 12.9947 110.54 16.024C109.495 19.032 108.62 23.1067 107.916 28.248C107.767 29.336 107.543 30.0933 107.244 30.52C106.967 30.9467 106.412 31.16 105.58 31.16ZM143.066 31.16C141.743 31.16 140.687 30.68 139.898 29.72C139.108 28.76 138.714 27.5013 138.714 25.944C138.714 24.2373 139.108 22.6267 139.898 21.112C140.687 19.576 141.732 18.3493 143.034 17.432C144.356 16.4933 145.754 16.024 147.226 16.024C147.695 16.024 148.004 16.12 148.154 16.312C148.324 16.4827 148.463 16.8027 148.57 17.272C149.018 17.1867 149.487 17.144 149.978 17.144C151.023 17.144 151.546 17.5173 151.546 18.264C151.546 18.712 151.386 19.7787 151.066 21.464C150.575 23.9173 150.33 25.624 150.33 26.584C150.33 26.904 150.404 27.16 150.554 27.352C150.724 27.544 150.938 27.64 151.194 27.64C151.599 27.64 152.09 27.384 152.666 26.872C153.242 26.3387 154.02 25.4853 155.002 24.312C155.258 24.0133 155.546 23.864 155.866 23.864C156.143 23.864 156.356 23.992 156.506 24.248C156.676 24.504 156.762 24.856 156.762 25.304C156.762 26.1573 156.559 26.8187 156.154 27.288C155.279 28.376 154.351 29.2933 153.37 30.04C152.388 30.7867 151.439 31.16 150.522 31.16C149.818 31.16 149.167 30.9253 148.57 30.456C147.994 29.9653 147.556 29.304 147.258 28.472C146.148 30.264 144.751 31.16 143.066 31.16ZM144.218 27.928C144.687 27.928 145.135 27.6507 145.562 27.096C145.988 26.5413 146.298 25.8053 146.49 24.888L147.674 19C146.778 19.0213 145.946 19.3627 145.178 20.024C144.431 20.664 143.834 21.5173 143.386 22.584C142.938 23.6507 142.714 24.7813 142.714 25.976C142.714 26.6373 142.842 27.128 143.098 27.448C143.375 27.768 143.748 27.928 144.218 27.928ZM156.433 31.16C155.622 31.16 155.046 30.7333 154.705 29.88C154.385 29.0267 154.225 27.6613 154.225 25.784C154.225 23.0107 154.62 20.376 155.409 17.88C155.601 17.2613 155.91 16.8133 156.337 16.536C156.785 16.2373 157.404 16.088 158.193 16.088C158.62 16.088 158.918 16.1413 159.089 16.248C159.26 16.3547 159.345 16.5573 159.345 16.856C159.345 17.1973 159.185 17.9653 158.865 19.16C158.652 20.0133 158.481 20.76 158.353 21.4C158.225 22.04 158.118 22.8293 158.033 23.768C158.737 21.9333 159.526 20.44 160.401 19.288C161.276 18.136 162.129 17.3147 162.961 16.824C163.814 16.3333 164.593 16.088 165.297 16.088C166.684 16.088 167.377 16.7813 167.377 18.168C167.377 18.4453 167.281 19.1173 167.089 20.184C166.918 21.0373 166.833 21.5707 166.833 21.784C166.833 22.5307 167.1 22.904 167.633 22.904C168.23 22.904 168.998 22.4347 169.937 21.496C170.214 21.2187 170.502 21.08 170.801 21.08C171.078 21.08 171.292 21.208 171.441 21.464C171.612 21.6987 171.697 22.0187 171.697 22.424C171.697 23.2133 171.484 23.832 171.057 24.28C170.46 24.8987 169.756 25.432 168.945 25.88C168.156 26.3067 167.313 26.52 166.417 26.52C165.286 26.52 164.422 26.232 163.825 25.656C163.249 25.08 162.961 24.3013 162.961 23.32C162.961 23 162.993 22.68 163.057 22.36C163.1 21.9333 163.121 21.6453 163.121 21.496C163.121 21.1547 163.004 20.984 162.769 20.984C162.449 20.984 162.022 21.3467 161.489 22.072C160.977 22.776 160.465 23.7147 159.953 24.888C159.441 26.0613 159.025 27.2987 158.705 28.6C158.47 29.6027 158.193 30.2853 157.873 30.648C157.574 30.9893 157.094 31.16 156.433 31.16ZM187.22 23.864C187.497 23.864 187.71 23.992 187.86 24.248C188.03 24.504 188.116 24.856 188.116 25.304C188.116 26.1573 187.913 26.8187 187.508 27.288C186.548 28.4613 185.577 29.4 184.596 30.104C183.614 30.808 182.452 31.16 181.108 31.16C179.465 31.16 178.142 30.6907 177.14 29.752C176.137 28.8133 175.635 27.5653 175.635 26.008C175.635 25.176 176.062 24.5787 176.916 24.216C177.854 23.8107 178.526 23.384 178.932 22.936C179.337 22.4667 179.54 21.9013 179.54 21.24C179.54 20.856 179.454 20.568 179.284 20.376C179.134 20.184 178.942 20.088 178.708 20.088C178.132 20.088 177.492 20.504 176.788 21.336C176.105 22.168 175.465 23.2453 174.868 24.568C174.27 25.8693 173.801 27.2133 173.46 28.6C173.225 29.6027 172.948 30.2853 172.628 30.648C172.329 30.9893 171.849 31.16 171.188 31.16C170.526 31.16 170.036 30.9253 169.716 30.456C169.417 29.9653 169.214 29.2187 169.108 28.216C169.001 27.2133 168.948 25.7413 168.948 23.8C168.948 20.5147 169.278 17.0907 169.94 13.528C170.622 9.96533 171.614 6.97867 172.916 4.568C174.238 2.136 175.817 0.919998 177.652 0.919998C178.633 0.919998 179.422 1.34667 180.02 2.2C180.638 3.032 180.948 4.12 180.948 5.464C180.948 7.61867 180.318 9.85867 179.06 12.184C177.801 14.488 175.753 17.1867 172.916 20.28C172.852 21.3893 172.82 22.5307 172.82 23.704C173.844 21.0373 175.017 19.1067 176.34 17.912C177.662 16.696 178.9 16.088 180.052 16.088C181.118 16.088 181.972 16.4507 182.612 17.176C183.273 17.9013 183.604 18.7973 183.604 19.864C183.604 21.0373 183.305 22.1147 182.708 23.096C182.11 24.0773 181.086 24.952 179.636 25.72C179.721 26.296 179.977 26.7653 180.404 27.128C180.852 27.4693 181.385 27.64 182.004 27.64C182.665 27.64 183.305 27.384 183.924 26.872C184.542 26.36 185.353 25.5067 186.356 24.312C186.612 24.0133 186.9 23.864 187.22 23.864ZM176.98 4.088C176.596 4.088 176.169 4.64267 175.7 5.752C175.23 6.84 174.772 8.32267 174.324 10.2C173.897 12.056 173.545 14.0827 173.268 16.28C174.59 14.7227 175.678 13.0267 176.532 11.192C177.406 9.35733 177.844 7.69333 177.844 6.2C177.844 5.51733 177.769 4.99467 177.62 4.632C177.47 4.26933 177.257 4.088 176.98 4.088ZM199.808 23.864C200.085 23.864 200.299 23.992 200.448 24.248C200.619 24.504 200.704 24.856 200.704 25.304C200.704 26.1573 200.501 26.8187 200.096 27.288C199.307 28.248 198.187 29.1333 196.736 29.944C195.307 30.7547 193.771 31.16 192.128 31.16C189.888 31.16 188.149 30.552 186.912 29.336C185.675 28.12 185.056 26.456 185.056 24.344C185.056 22.872 185.365 21.5067 185.984 20.248C186.603 18.968 187.456 17.9547 188.544 17.208C189.653 16.4613 190.901 16.088 192.288 16.088C193.525 16.088 194.517 16.4613 195.264 17.208C196.011 17.9333 196.384 18.9253 196.384 20.184C196.384 21.656 195.851 22.9253 194.784 23.992C193.739 25.0373 191.957 25.8693 189.44 26.488C189.973 27.4693 190.987 27.96 192.48 27.96C193.44 27.96 194.528 27.6293 195.744 26.968C196.981 26.2853 198.048 25.4 198.944 24.312C199.2 24.0133 199.488 23.864 199.808 23.864ZM191.744 19.224C190.955 19.224 190.283 19.6827 189.728 20.6C189.195 21.5173 188.928 22.6267 188.928 23.928V23.992C190.187 23.6933 191.179 23.2453 191.904 22.648C192.629 22.0507 192.992 21.3573 192.992 20.568C192.992 20.1627 192.875 19.8427 192.64 19.608C192.427 19.352 192.128 19.224 191.744 19.224ZM203.379 19.128C203.336 20.1947 203.315 21.0267 203.315 21.624C203.315 23.16 203.389 24.3653 203.539 25.24C203.709 26.0933 203.976 26.712 204.339 27.096C204.723 27.4587 205.245 27.64 205.907 27.64C206.248 27.64 206.653 27.5333 207.123 27.32C207.592 27.1067 208.019 26.8293 208.403 26.488C208.637 26.2747 208.872 26.168 209.107 26.168C209.363 26.168 209.565 26.3173 209.715 26.616C209.885 26.8933 209.971 27.2347 209.971 27.64C209.971 28.0453 209.885 28.44 209.715 28.824C209.565 29.208 209.331 29.528 209.011 29.784C207.901 30.7013 206.643 31.16 205.235 31.16C203.208 31.16 201.725 30.3173 200.786 28.632C199.848 26.9253 199.379 24.7067 199.379 21.976C199.379 21.0373 199.411 20.088 199.475 19.128H198.227C197.587 19.128 197.149 19.0107 196.915 18.776C196.701 18.5413 196.595 18.168 196.595 17.656C196.595 16.4613 197.075 15.864 198.035 15.864H199.859C200.221 13.5173 200.776 11.3733 201.523 9.432C202.269 7.49067 203.165 5.944 204.211 4.792C205.277 3.64 206.419 3.064 207.635 3.064C208.531 3.064 209.235 3.45867 209.747 4.248C210.259 5.03733 210.515 6.02933 210.515 7.224C210.515 10.5307 209.128 13.4107 206.355 15.864H209.939C210.28 15.864 210.525 15.9387 210.675 16.088C210.824 16.2373 210.899 16.5147 210.899 16.92C210.899 18.392 209.693 19.128 207.283 19.128H203.379ZM206.771 6.136C206.451 6.136 206.088 6.54133 205.683 7.352C205.299 8.14133 204.925 9.25067 204.562 10.68C204.221 12.088 203.933 13.656 203.699 15.384C204.957 14.296 205.896 13.08 206.515 11.736C207.155 10.3707 207.475 9.13333 207.475 8.024C207.475 6.76533 207.24 6.136 206.771 6.136Z" fill="#FDD602"/>
</svg>
